Coordinates
version=1
nRows=26
nColumns=24
inDegrees=yes

Units are S.I. units (second, meters, Newtons, ...)
Angles are in degrees.

endheader
time	pelvis_tilt	pelvis_list	pelvis_rotation	pelvis_tx	pelvis_ty	pelvis_tz	hip_flexion_r	hip_adduction_r	hip_rotation_r	knee_angle_r	ankle_angle_r	subtalar_angle_r	mtp_angle_r	hip_flexion_l	hip_adduction_l	hip_rotation_l	knee_angle_l	ankle_angle_l	subtalar_angle_l	mtp_angle_l	lumbar_extension	lumbar_bending	lumbar_rotation
      1.81683333	      1.70509000	      8.13050700	     -6.22445295	      1.35964949	      1.02003253	      0.27827468	     14.22046646	     -7.58621138	      4.22508160	    -62.66513483	      6.85625316	    -15.22160422	      1.05396831	      5.84838293	     13.07818498	      1.04875656	    -11.15460269	      0.03049746	    -20.26409257	      7.62286258	     -1.54975441	     -9.27190896	      7.13449112
      1.82100000	      1.67191025	      8.04556912	     -6.00628581	      1.36413019	      1.02055384	      0.27805691	     14.72048999	     -7.44334560	      4.05164681	    -62.20299483	      7.01188400	    -15.23359035	      1.02012414	      5.42219391	     13.02633476	      1.30247339	    -10.87763643	      0.09851183	    -20.17027141	      7.60140424	     -1.57215729	     -9.17786336	      7.06833911
      1.82516667	      1.67590077	      7.96084401	     -5.78135242	      1.36857649	      1.02109643	      0.27782115	     15.16862967	     -7.31018052	      3.87390274	    -61.71005642	      7.13317629	    -15.24279218	      0.89241939	      4.93187465	     12.98894331	      1.67570797	    -10.55180272	      0.12622304	    -20.27917545	      7.51038662	     -1.65987888	     -9.10291115	      6.72432974
      1.82933333	      1.62874471	      7.87015687	     -5.54820836	      1.37301883	      1.02153031	      0.27757499	     15.66512245	     -7.17102460	      3.68881729	    -61.19772595	      7.26263923	    -15.23010925	      0.85032288	      4.53250071	     12.92663529	      1.96432704	    -10.29621851	      0.21474361	    -20.20520004	      7.48329626	     -1.68122104	     -8.98985065	      6.64662323
      1.83350000	      1.60517202	      7.78159723	     -5.31150288	      1.37746629	      1.02198702	      0.27732961	     16.12306336	     -7.04618134	      3.49067090	    -60.64788725	      7.38257116	    -15.21873878	      0.80089163	      4.09409803	     12.86668265	      2.27067382	    -10.01382553	      0.28339678	    -20.17710935	      7.45141948	     -1.72506274	     -8.88813267	      6.47583782
      1.83766667	      1.56763271	      7.69756529	     -5.08040630	      1.38190831	      1.02239431	      0.27710901	     16.58907180	     -6.92294704	      3.30627185	    -60.07492097	      7.48540907	    -15.20357045	      0.74610750	      3.67384787	     12.80793155	      2.59310824	     -9.73794999	      0.34542414	    -20.18768916	      7.41355814	     -1.75226491	     -8.80233594	      6.27092487
      1.84183333	      1.55052777	      7.62241664	     -4.85618995	      1.38633527	      1.02279819	      0.27689042	     17.03091897	     -6.81695242	      3.12675927	    -59.48221929	      7.57304473	    -15.18471971	      0.65633953	      3.22162711	     12.75995934	      2.93389827	     -9.43330337	      0.39476934	    -20.28159691	      7.34990962	     -1.79650480	     -8.73086248	      5.95950235
      1.84600000	      1.50936186	      7.55133525	     -4.62357956	      1.39072168	      1.02311324	      0.27666880	     17.50060922	     -6.71925327	      2.94138711	    -58.88474000	      7.68944836	    -15.15694156	      0.61467802	      2.82187595	     12.70208441	      3.20211367	     -9.16916401	      0.44038662	    -20.21696621	      7.32229431	     -1.83132809	     -8.63488517	      5.85663859
      1.85016667	      1.46354230	      7.47969851	     -4.38483580	      1.39515484	      1.02340943	      0.27645495	     17.95216038	     -6.62422144	      2.75456302	    -58.24860784	      7.78234359	    -15.12225333	      0.56631776	      2.42008879	     12.64398807	      3.51845357	     -8.90462358	      0.50559259	    -20.21360005	      7.29003748	     -1.84292398	     -8.56219529	      5.67567965
      1.85433333	      1.44699487	      7.43124093	     -4.15815415	      1.39954282	      1.02370085	      0.27626005	     18.37602669	     -6.55938757	      2.58227029	    -57.60425170	      7.86813969	    -15.09086354	      0.44903986	      1.96622137	     12.61324988	      3.88771086	     -8.57653619	      0.49573846	    -20.35170936	      7.20294438	     -1.90269832	     -8.52347285	      5.30891048
      1.85850000	      1.40578246	      7.35833381	     -3.91958928	      1.40394447	      1.02394051	      0.27603678	     18.80555811	     -6.47663349	      2.38929522	    -56.92161294	      7.93071684	    -15.04284194	      0.36810036	      1.57054980	     12.54856293	      4.19784911	     -8.33135840	      0.59162109	    -20.36819467	      7.14365586	     -1.91539328	     -8.43243320	      5.15746213
      1.86266667	      1.35886634	      7.28851335	     -3.68560344	      1.40833320	      1.02415912	      0.27586531	     19.23173907	     -6.39230194	      2.21054973	    -56.21588251	      8.00044624	    -14.99894927	      0.33044615	      1.18958595	     12.47434831	      4.45007911	     -8.09043231	      0.63832392	    -20.29364194	      7.11722204	     -1.93474464	     -8.36385555	      5.05894465
      1.86683333	      1.31567871	      7.22637886	     -3.44128000	      1.41272389	      1.02434213	      0.27566729	     19.64505775	     -6.32895126	      2.01779041	    -55.49191389	      8.05984669	    -14.94555959	      0.28846771	      0.79624283	     12.41019056	      4.74984365	     -7.83638184	      0.69973972	    -20.28051734	      7.08749903	     -1.95630950	     -8.29648666	      4.87848378
      1.87100000	      1.30263625	      7.18279308	     -3.21277757	      1.41709097	      1.02452817	      0.27549522	     20.02714811	     -6.28616417	      1.84857108	    -54.76370464	      8.08466517	    -14.91849188	      0.20378889	      0.35645085	     12.36919098	      5.11235166	     -7.54715465	      0.73512146	    -20.39979821	      7.01904298	     -2.01532985	     -8.24946107	      4.53885670
      1.87516667	      1.23227745	      7.13625902	     -2.99032925	      1.42149528	      1.02460059	      0.27536245	     20.45928694	     -6.23592286	      1.68616878	    -54.00894570	      8.13487285	    -14.84685535	      0.17243824	      0.00205985	     12.30753566	      5.34912528	     -7.30156626	      0.78382276	    -20.32781390	      6.99479006	     -2.00107997	     -8.20131685	      4.47704752
      1.87933333	      1.20743068	      7.07382600	     -2.75416753	      1.42588792	      1.02473618	      0.27520763	     20.81886996	     -6.18206019	      1.50241050	    -53.21558941	      8.15878803	    -14.78305327	      0.13733598	     -0.40560015	     12.23074401	      5.63214865	     -7.05141078	      0.85122850	    -20.30453629	      6.96748479	     -2.04073119	     -8.13514899	      4.32134116
      1.88350000	      1.17340869	      7.04745416	     -2.53148906	      1.43027540	      1.02478474	      0.27507338	     21.20001712	     -6.16835015	      1.33783228	    -52.43670993	      8.16984536	    -14.72982142	      0.07244249	     -0.81753469	     12.19308595	      5.96225635	     -6.77002589	      0.90660848	    -20.39704252	      6.91131025	     -2.07003037	     -8.10965976	      4.03341361
      1.88766667	      1.12310764	      7.02006315	     -2.32996422	      1.43467163	      1.02478866	      0.27499498	     21.59493647	     -6.14508185	      1.19705192	    -51.64345567	      8.18738644	    -14.66230554	      0.05451295	     -1.19882427	     12.14124763	      6.18362557	     -6.50109122	      0.95660577	    -20.29124929	      6.89743336	     -2.07748038	     -8.07783579	      3.98494611
      1.89183333	      1.11974009	      6.97424140	     -2.10139926	      1.43906626	      1.02485634	      0.27488098	     21.90106737	     -6.11833668	      1.02410791	    -50.79333120	      8.17929517	    -14.59869368	     -0.00347365	     -1.63276510	     12.07486394	      6.50035695	     -6.24398419	      1.01827857	    -20.38072869	      6.84374495	     -2.14339547	     -8.04006593	      3.71348838
      1.89600000	      1.07058213	      6.94251981	     -1.88448339	      1.44344771	      1.02481754	      0.27480465	     22.26194596	     -6.10131820	      0.87139797	    -49.94461830	      8.17341832	    -14.51000326	     -0.02550790	     -2.00220062	     12.01182019	      6.73338811	     -6.00669931	      1.07510050	    -20.29984371	      6.82199208	     -2.15250862	     -8.01201116	      3.64756710
      1.90016667	      1.06831730	      6.92199397	     -1.69033383	      1.44787298	      1.02480978	      0.27475438	     22.56336365	     -6.10043976	      0.72513353	    -49.07949557	      8.15040494	    -14.43543464	     -0.06715455	     -2.44743057	     11.96306817	      7.00176043	     -5.72150287	      1.15247048	    -20.33137951	      6.77286834	     -2.21315141	     -7.99438222	      3.42926851
      1.90433333	      1.01217589	      6.90096947	     -1.46849658	      1.45229518	      1.02470835	      0.27469073	     22.90688560	     -6.10421198	      0.56653018	    -48.19820581	      8.13542159	    -14.33614078	     -0.08402295	     -2.80788460	     11.90408619	      7.23001693	     -5.48736501	      1.21746042	    -20.24590297	      6.75259450	     -2.21102143	     -7.97837483	      3.36012430
      1.90850000	      1.00927227	      6.88145248	     -1.28613813	      1.45669665	      1.02462656	      0.27467804	     23.19380412	     -6.10232284	      0.43785979	    -47.30308118	      8.10445956	    -14.25224747	     -0.11461981	     -3.24461817	     11.84884225	      7.47573903	     -5.21120282	      1.30657763	    -20.25386263	      6.70795434	     -2.27346852	     -7.96294684	      3.17781060
      1.91266667	      0.95314677	      6.86888884	     -1.07279334	      1.46113513	      1.02446758	      0.27464400	     23.51733283	     -6.11856481	      0.28658724	    -46.38514504	      8.07628440	    -14.13454515	     -0.12665962	     -3.60205285	     11.79328252	      7.69593396	     -4.98149011	      1.38091222	    -20.17217107	      6.68876085	     -2.26857509	     -7.95576103	      3.10353612
      1.91683333	      0.94220118	      6.84817628	     -0.87498030	      1.46557788	      1.02433998	      0.27463502	     23.77845323	     -6.12550986	      0.14380123	    -45.44841149	      8.03736513	    -14.02674763	     -0.13609857	     -4.01526375	     11.72719677	      7.90986884	     -4.73761425	      1.48092899	    -20.10485996	      6.66861136	     -2.31898201	     -7.93662002	      2.99888900
      1.92100000	      0.94770408	      6.85260710	     -0.69439267	      1.47000902	      1.02418120	      0.27465865	     24.02603217	     -6.15688070	      0.01962732	    -44.51207982	      8.00752670	    -13.91057512	     -0.14768319	     -4.45972430	     11.68733374	      8.15053388	     -4.46501097	      1.57184605	    -20.09625363	      6.62308845	     -2.39350292	     -7.95200340	      2.79364516
